<svg width="24" height="22" viewBox="0 0 24 22" fill="none" xmlns="http://www.w3.org/2000/svg">
<path fill-rule="evenodd" clip-rule="evenodd" d="M0.355103 11C0.355103 10.6187 0.506553 10.2531 0.776137 9.98352C1.04572 9.71394 1.41135 9.56249 1.7926 9.56249H18.4475L12.2749 3.39274C12.0049 3.12281 11.8533 2.75672 11.8533 2.37499C11.8533 1.99326 12.0049 1.62716 12.2749 1.35724C12.5448 1.08731 12.9109 0.935669 13.2926 0.935669C13.6743 0.935669 14.0404 1.08731 14.3104 1.35724L22.9354 9.98223C23.0692 10.1158 23.1754 10.2744 23.2479 10.449C23.3204 10.6237 23.3577 10.8109 23.3577 11C23.3577 11.1891 23.3204 11.3763 23.2479 11.5509C23.1754 11.7256 23.0692 11.8842 22.9354 12.0177L14.3104 20.6427C14.0404 20.9127 13.6743 21.0643 13.2926 21.0643C12.9109 21.0643 12.5448 20.9127 12.2749 20.6427C12.0049 20.3728 11.8533 20.0067 11.8533 19.625C11.8533 19.2433 12.0049 18.8772 12.2749 18.6072L18.4475 12.4375H1.7926C1.41135 12.4375 1.04572 12.286 0.776137 12.0165C0.506553 11.7469 0.355103 11.3812 0.355103 11Z" fill="white"/>
</svg>
