<svg width="28" height="26" viewBox="0 0 28 26" fill="none" xmlns="http://www.w3.org/2000/svg">
<path d="M0.562256 3.875C0.562256 3.0462 0.917835 2.25134 1.55077 1.66529C2.18371 1.07924 3.04215 0.75 3.93726 0.75L17.4373 0.75C18.3324 0.75 19.1908 1.07924 19.8237 1.66529C20.4567 2.25134 20.8123 3.0462 20.8123 3.875V7H24.1873C25.0824 7 25.9408 7.32924 26.5737 7.91529C27.2067 8.50134 27.5623 9.2962 27.5623 10.125V22.625C27.5623 23.4538 27.2067 24.2487 26.5737 24.8347C25.9408 25.4208 25.0824 25.75 24.1873 25.75H10.6873C9.79215 25.75 8.93371 25.4208 8.30077 24.8347C7.66783 24.2487 7.31226 23.4538 7.31226 22.625V19.5H3.93726C3.04215 19.5 2.18371 19.1708 1.55077 18.5847C0.917835 17.9987 0.562256 17.2038 0.562256 16.375V3.875ZM3.93726 2.3125C3.4897 2.3125 3.06048 2.47712 2.74401 2.77015C2.42755 3.06317 2.24976 3.4606 2.24976 3.875V16.375C2.24976 16.7894 2.42755 17.1868 2.74401 17.4799C3.06048 17.7729 3.4897 17.9375 3.93726 17.9375H17.4373C17.8848 17.9375 18.314 17.7729 18.6305 17.4799C18.947 17.1868 19.1248 16.7894 19.1248 16.375V3.875C19.1248 3.4606 18.947 3.06317 18.6305 2.77015C18.314 2.47712 17.8848 2.3125 17.4373 2.3125H3.93726Z" fill="white"/>
</svg>
