<svg width="42" height="41" viewBox="0 0 42 41" fill="none" xmlns="http://www.w3.org/2000/svg">
<path d="M39.8778 13.5918C39.8778 13.5918 39.8778 13.5918 39.8778 13.489C38.4272 9.53377 35.7952 6.11888 32.3377 3.70633C28.8802 1.29378 24.7642 0 20.5464 0C16.3286 0 12.2125 1.29378 8.75506 3.70633C5.29759 6.11888 2.66555 9.53377 1.21497 13.489C1.21497 13.489 1.21497 13.489 1.21497 13.5918C-0.40499 18.0552 -0.40499 22.9448 1.21497 27.4081C1.21497 27.4081 1.21497 27.4082 1.21497 27.511C2.66555 31.4662 5.29759 34.8811 8.75506 37.2937C12.2125 39.7062 16.3286 41 20.5464 41C24.7642 41 28.8802 39.7062 32.3377 37.2937C35.7952 34.8811 38.4272 31.4662 39.8778 27.511C39.8778 27.511 39.8778 27.5109 39.8778 27.4081C41.4977 22.9448 41.4977 18.0552 39.8778 13.5918ZM4.57069 24.612C3.85678 21.917 3.85678 19.083 4.57069 16.388H8.39991C8.07058 19.1195 8.07058 21.8805 8.39991 24.612H4.57069ZM6.25884 28.724H9.14105C9.62428 30.5576 10.315 32.3303 11.1998 34.0079C9.18078 32.6344 7.49304 30.8295 6.25884 28.724ZM9.14105 12.276H6.25884C7.47528 10.177 9.14145 8.37263 11.138 6.99209C10.2745 8.67235 9.60456 10.445 9.14105 12.276ZM18.4465 36.3312C15.9179 34.4781 14.142 31.7776 13.4438 28.724H18.4465V36.3312ZM18.4465 24.612H12.5585C12.1744 21.8841 12.1744 19.1159 12.5585 16.388H18.4465V24.612ZM18.4465 12.276H13.4438C14.142 9.22237 15.9179 6.52193 18.4465 4.66882V12.276ZM34.7516 12.276H31.8694C31.3861 10.4424 30.6955 8.66966 29.8106 6.99209C31.8296 8.36565 33.5174 10.1705 34.7516 12.276ZM22.5639 4.66882C25.0925 6.52193 26.8684 9.22237 27.5666 12.276H22.5639V4.66882ZM22.5639 36.3312V28.724H27.5666C26.8684 31.7776 25.0925 34.4781 22.5639 36.3312ZM28.4519 24.612H22.5639V16.388H28.4519C28.8361 19.1159 28.8361 21.8841 28.4519 24.612ZM29.8724 34.0079C30.7572 32.3303 31.4479 30.5576 31.9311 28.724H34.8133C33.5791 30.8295 31.8914 32.6344 29.8724 34.0079ZM36.4397 24.612H32.6105C32.7779 23.2478 32.8604 21.8744 32.8576 20.5C32.8598 19.1256 32.7773 17.7523 32.6105 16.388H36.4397C37.1536 19.083 37.1536 21.917 36.4397 24.612Z" fill="#454545"/>
</svg>
