<svg width="26" height="27" viewBox="0 0 26 27" fill="none" xmlns="http://www.w3.org/2000/svg">
<path fill-rule="evenodd" clip-rule="evenodd" d="M14.789 17.9428C16.2573 17.9428 17.4524 19.1644 17.4524 20.666V24.5279C17.4524 24.8506 17.7037 25.1092 18.0256 25.1167H20.35C22.1817 25.1167 23.6707 23.6026 23.6707 21.7419V10.7889C23.6622 10.1486 23.3659 9.54594 22.8573 9.14543L14.8171 2.54397C13.7378 1.66386 12.228 1.66386 11.1451 2.54648L3.15976 9.14292C2.63171 9.55598 2.33537 10.1586 2.32927 10.8102V21.7419C2.32927 23.6026 3.81829 25.1167 5.65 25.1167H7.99634C8.32683 25.1167 8.59512 24.8468 8.59512 24.5154C8.59512 24.4425 8.60366 24.3697 8.61829 24.3007V20.666C8.61829 19.1732 9.8061 17.9528 11.2634 17.9428H14.789ZM20.35 27H18.0037C16.6598 26.9674 15.6232 25.8813 15.6232 24.5279V20.666C15.6232 20.2027 15.2488 19.826 14.789 19.826H11.2695C10.8195 19.8285 10.4476 20.2064 10.4476 20.666V24.5154C10.4476 24.6095 10.4354 24.6999 10.4098 24.7853C10.278 26.0282 9.24634 27 7.99634 27H5.65C2.80976 27 0.5 24.6409 0.5 21.7419V10.8014C0.512195 9.55347 1.07073 8.41096 2.03537 7.65891L10.0049 1.07377C11.7598 -0.357505 14.2049 -0.357506 15.9561 1.07126L23.9829 7.66268C24.9256 8.40217 25.4841 9.54217 25.5 10.7751V21.7419C25.5 24.6409 23.1902 27 20.35 27Z" fill="white"/>
</svg>
