<svg width="31" height="30" viewBox="0 0 31 30" fill="none" xmlns="http://www.w3.org/2000/svg">
<path d="M11.9463 22.776L9.25988 25.2961C8.55543 25.9761 7.6 26.3581 6.60376 26.3581C5.60752 26.3581 4.65209 25.9761 3.94764 25.2961C3.2432 24.6161 2.84744 23.6938 2.84744 22.7321C2.84744 21.7704 3.2432 20.8481 3.94764 20.1681L10.8384 13.5016C11.5147 12.8466 12.426 12.4677 13.3837 12.4431C14.3414 12.4186 15.2723 12.7503 15.9836 13.3698L16.1658 13.5163C16.4536 13.7883 16.8416 13.9388 17.2443 13.9347C17.6471 13.9306 18.0317 13.7721 18.3134 13.4943C18.5952 13.2165 18.7511 12.842 18.7469 12.4532C18.7426 12.0644 18.5785 11.6931 18.2907 11.4211C18.205 11.3142 18.1138 11.2115 18.0175 11.1134C16.7218 10.0253 15.0462 9.45321 13.3299 9.51306C11.6137 9.57291 9.98512 10.2602 8.77419 11.4358L1.79239 18.1022C0.60603 19.3487 -0.0355908 20.9895 0.00152497 22.6819C0.0386408 24.3743 0.751623 25.9874 1.99158 27.1843C3.23153 28.3813 4.90257 29.0695 6.65574 29.1053C8.40891 29.1412 10.1086 28.5218 11.3999 27.3766L14.0257 24.9005C14.285 24.6275 14.4275 24.2698 14.4246 23.8994C14.4217 23.529 14.2736 23.1735 14.0101 22.9042C13.7466 22.635 13.3872 22.4721 13.0043 22.4483C12.6215 22.4245 12.2434 22.5416 11.9463 22.776ZM28.1714 1.91233C26.8946 0.687475 25.1677 0 23.3677 0C21.5676 0 19.8407 0.687475 18.5639 1.91233L15.9381 4.38843C15.6789 4.66146 15.5363 5.01914 15.5392 5.38951C15.5421 5.75988 15.6902 6.11545 15.9537 6.38467C16.2172 6.65389 16.5766 6.81678 16.9595 6.84057C17.3424 6.86436 17.7204 6.74728 18.0175 6.51289L20.6432 3.99284C21.3477 3.31282 22.3031 2.93079 23.2994 2.93079C24.2956 2.93079 25.251 3.31282 25.9555 3.99284C26.6599 4.67285 27.0557 5.59515 27.0557 6.55684C27.0557 7.51853 26.6599 8.44083 25.9555 9.12085L19.0647 15.7873C18.3884 16.4423 17.4771 16.8213 16.5194 16.8458C15.5617 16.8703 14.6309 16.5386 13.9195 15.9191L13.7373 15.7726C13.4495 15.5006 13.0616 15.3501 12.6588 15.3542C12.256 15.3584 11.8714 15.5168 11.5897 15.7946C11.3079 16.0724 11.152 16.4469 11.1563 16.8357C11.1605 17.2245 11.3246 17.5958 11.6124 17.8678C11.7227 17.9766 11.8392 18.0793 11.9615 18.1755C13.2587 19.2603 14.9337 19.8303 16.6489 19.7705C18.3641 19.7106 19.9921 19.0255 21.2048 17.8531L28.1107 11.1867C29.3877 9.96195 30.1108 8.29924 30.1222 6.5616C30.1335 4.82397 29.4322 3.15256 28.1714 1.91233Z" fill="black"/>
</svg>
