<svg width="47" height="30" viewBox="0 0 47 30" fill="none" xmlns="http://www.w3.org/2000/svg">
<path d="M27.9711 22.9749L25.2847 25.4949C24.5802 26.1749 23.6248 26.557 22.6285 26.557C21.6323 26.557 20.6769 26.1749 19.9724 25.4949C19.268 24.8149 18.8722 23.8926 18.8722 22.9309C18.8722 21.9692 19.268 21.0469 19.9724 20.3669L26.8632 13.7005C27.5395 13.0455 28.4508 12.6665 29.4085 12.642C30.3662 12.6174 31.297 12.9492 32.0084 13.5686L32.1906 13.7151C32.4784 13.9871 32.8663 14.1376 33.2691 14.1335C33.6719 14.1294 34.0564 13.971 34.3382 13.6932C34.62 13.4153 34.7759 13.0408 34.7716 12.652C34.7674 12.2632 34.6033 11.892 34.3155 11.62C34.2298 11.5131 34.1386 11.4104 34.0423 11.3123C32.7466 10.2242 31.0709 9.65207 29.3547 9.71192C27.6384 9.77176 26.0099 10.4591 24.799 11.6346L17.8172 18.3011C16.6308 19.5476 15.9892 21.1884 16.0263 22.8807C16.0634 24.5731 16.7764 26.1862 18.0164 27.3832C19.2563 28.5801 20.9274 29.2684 22.6805 29.3042C24.4337 29.34 26.1334 28.7207 27.4247 27.5754L30.0505 25.0993C30.3098 24.8263 30.4523 24.4686 30.4494 24.0983C30.4465 23.7279 30.2984 23.3723 30.0349 23.1031C29.7714 22.8339 29.412 22.671 29.0291 22.6472C28.6462 22.6234 28.2682 22.7405 27.9711 22.9749ZM44.1962 2.11118C42.9194 0.886327 41.1925 0.198853 39.3924 0.198853C37.5924 0.198853 35.8654 0.886327 34.5887 2.11118L31.9629 4.58728C31.7036 4.86031 31.5611 5.21799 31.564 5.58836C31.5669 5.95873 31.715 6.3143 31.9785 6.58352C32.242 6.85274 32.6014 7.01563 32.9843 7.03942C33.3672 7.06321 33.7452 6.94613 34.0423 6.71174L36.668 4.19169C37.3725 3.51167 38.3279 3.12964 39.3241 3.12964C40.3204 3.12964 41.2758 3.51167 41.9802 4.19169C42.6847 4.87171 43.0804 5.79401 43.0804 6.7557C43.0804 7.71738 42.6847 8.63968 41.9802 9.3197L35.0895 15.9861C34.4132 16.6411 33.5019 17.0201 32.5442 17.0447C31.5865 17.0692 30.6556 16.7374 29.9442 16.118L29.7621 15.9715C29.4743 15.6995 29.0863 15.549 28.6836 15.5531C28.2808 15.5572 27.8962 15.7156 27.6145 15.9934C27.3327 16.2713 27.1768 16.6458 27.181 17.0346C27.1853 17.4234 27.3494 17.7946 27.6372 18.0666C27.7475 18.1755 27.864 18.2782 27.9863 18.3743C29.2835 19.4592 30.9585 20.0291 32.6737 19.9693C34.3889 19.9095 36.0169 19.2244 37.2296 18.052L44.1355 11.3856C45.4125 10.1608 46.1356 8.49809 46.1469 6.76045C46.1583 5.02282 45.457 3.35141 44.1962 2.11118Z" fill="black"/>
<path d="M12.3906 22.9749L9.70415 25.4949C8.99971 26.1749 8.04427 26.557 7.04803 26.557C6.0518 26.557 5.09636 26.1749 4.39192 25.4949C3.68747 24.8149 3.29172 23.8926 3.29172 22.9309C3.29172 21.9692 3.68747 21.0469 4.39192 20.3669L11.2826 13.7005C11.959 13.0455 12.8703 12.6665 13.828 12.642C14.7857 12.6174 15.7165 12.9492 16.4279 13.5686L16.6101 13.7151C16.8979 13.9871 17.2858 14.1376 17.6886 14.1335C18.0914 14.1294 18.4759 13.971 18.7577 13.6932C19.0395 13.4153 19.1954 13.0408 19.1911 12.652C19.1869 12.2632 19.0228 11.892 18.735 11.62C18.6493 11.5131 18.5581 11.4104 18.4618 11.3123C17.1661 10.2242 15.4904 9.65207 13.7742 9.71192C12.0579 9.77176 10.4294 10.4591 9.21846 11.6346L2.23667 18.3011C1.0503 19.5476 0.408684 21.1884 0.4458 22.8807C0.482916 24.5731 1.1959 26.1862 2.43585 27.3832C3.6758 28.5801 5.34685 29.2684 7.10001 29.3042C8.85318 29.34 10.5529 28.7207 11.8442 27.5754L14.47 25.0993C14.7292 24.8263 14.8718 24.4686 14.8689 24.0983C14.866 23.7279 14.7179 23.3723 14.4544 23.1031C14.1909 22.8339 13.8315 22.671 13.4486 22.6472C13.0657 22.6234 12.6877 22.7405 12.3906 22.9749ZM28.6157 2.11118C27.3389 0.886327 25.612 0.198853 23.8119 0.198853C22.0119 0.198853 20.2849 0.886327 19.0082 2.11118L16.3824 4.58728C16.1231 4.86031 15.9806 5.21799 15.9835 5.58836C15.9864 5.95873 16.1345 6.3143 16.398 6.58352C16.6615 6.85274 17.0209 7.01563 17.4038 7.03942C17.7866 7.06321 18.1647 6.94613 18.4618 6.71174L21.0875 4.19169C21.792 3.51167 22.7474 3.12964 23.7436 3.12964C24.7399 3.12964 25.6953 3.51167 26.3997 4.19169C27.1042 4.87171 27.4999 5.79401 27.4999 6.7557C27.4999 7.71738 27.1042 8.63968 26.3997 9.3197L19.509 15.9861C18.8327 16.6411 17.9214 17.0201 16.9637 17.0447C16.006 17.0692 15.0751 16.7374 14.3637 16.118L14.1816 15.9715C13.8938 15.6995 13.5058 15.549 13.1031 15.5531C12.7003 15.5572 12.3157 15.7156 12.0339 15.9934C11.7522 16.2713 11.5963 16.6458 11.6005 17.0346C11.6048 17.4234 11.7689 17.7946 12.0567 18.0666C12.167 18.1755 12.2835 18.2782 12.4058 18.3743C13.703 19.4592 15.378 20.0291 17.0932 19.9693C18.8084 19.9095 20.4364 19.2244 21.6491 18.052L28.555 11.3856C29.8319 10.1608 30.5551 8.49809 30.5664 6.76045C30.5778 5.02282 29.8765 3.35141 28.6157 2.11118Z" fill="black"/>
</svg>
