<svg width="20" height="26" viewBox="0 0 20 26" fill="none" xmlns="http://www.w3.org/2000/svg">
<path fill-rule="evenodd" clip-rule="evenodd" d="M19.7999 20.7413C19.7999 24.8613 14.1499 25.3375 9.90113 25.3375L9.59708 25.3372C6.89013 25.3307 -0.00012207 25.1598 -0.00012207 20.7163C-0.00012207 16.6803 5.42282 16.141 9.63923 16.1206L10.2052 16.1203C12.9119 16.1268 19.7999 16.2978 19.7999 20.7413ZM9.90113 17.995C4.57488 17.995 1.87488 18.91 1.87488 20.7163C1.87488 22.5388 4.57488 23.4625 9.90113 23.4625C15.2261 23.4625 17.9249 22.5475 17.9249 20.7413C17.9249 18.9188 15.2261 17.995 9.90113 17.995ZM9.90113 0.499512C13.5611 0.499512 16.5374 3.47701 16.5374 7.13701C16.5374 10.797 13.5611 13.7733 9.90113 13.7733H9.86113C6.20863 13.762 3.24988 10.7833 3.26234 7.13326C3.26234 3.47701 6.23988 0.499512 9.90113 0.499512ZM9.90113 2.28451C7.22488 2.28451 5.04735 4.46076 5.04735 7.13701C5.03863 9.80451 7.19988 11.9795 9.86488 11.9895L9.90113 12.882V11.9895C12.5761 11.9895 14.7524 9.81201 14.7524 7.13701C14.7524 4.46076 12.5761 2.28451 9.90113 2.28451Z" fill="#5E5E5E"/>
</svg>
